# xmcd
#
# Track frame offsets: 
#        150
#        13915
#        28196
#        50164
#        65613
#        86577
#        105718
#        120580
#        136720
#        153576
#        172829
#        195665
#        210958
#        228703
#        244776
#
# Disc length: 3463 seconds
#
# Revision: 0
# Processed by: cddbd v1.5.2PL0 Copyright (c) Steve Scherf et al.
# Submitted via: ExactAudioCopy v0.95a5
#
DISCID=cb0d850f
DTITLE=Beat Tschugmall - Momentlos
DYEAR=2005
DGENRE=Vocal
TTITLE0=Momäntlos
TTITLE1=Mach d'Auge uf
TTITLE2=Zwei(n)samkeit
TTITLE3=Was wär...?
TTITLE4=Abflug
TTITLE5=de Pflötterblues
TTITLE6=s'Zauberwörtli
TTITLE7=Ich lueg i dini Auge
TTITLE8=Schutzengel
TTITLE9=Läbesfreud
TTITLE10=de Bäckerlade
TTITLE11=Schuggiputzli
TTITLE12=Pensionirig
TTITLE13=Abschied
TTITLE14=Auf ein Wort
EXTD=
EXTT0=
EXTT1=
EXTT2=
EXTT3=
EXTT4=
EXTT5=
EXTT6=
EXTT7=
EXTT8=
EXTT9=
EXTT10=
EXTT11=
EXTT12=
EXTT13=
EXTT14=
PLAYORDER=
